<svg width="32" height="32" viewBox="0 0 32 32" fill="none" xmlns="http://www.w3.org/2000/svg">
<g clip-path="url(#clip0_10_2)">
<rect width="32" height="32" fill="white"/>
<path d="M13.3334 13.9955L14.718 9.14923C14.9203 8.44118 15.6583 8.03119 16.3663 8.23348C16.8092 8.36004 17.1555 8.70628 17.282 9.14923L18.6667 13.9955V15.9955H19.6256C20.2375 15.9955 20.7708 16.4119 20.9192 17.0053L22.7347 24.2676C25.1343 22.3117 26.6667 19.3325 26.6667 15.9955C26.6667 10.1044 21.8911 5.32878 16 5.32878C10.109 5.32878 5.33335 10.1044 5.33335 15.9955C5.33335 19.3325 6.86578 22.3117 9.26531 24.2676L11.0809 17.0053C11.2293 16.4119 11.7626 15.9955 12.3744 15.9955H13.3334V13.9955ZM16 26.6621C16.322 26.6621 16.6418 26.6479 16.9586 26.6197C18.1583 26.5128 19.3008 26.2073 20.3532 25.7363L18.5846 18.6621H13.4155L11.6469 25.7363C12.6992 26.2073 13.8418 26.5128 15.0415 26.6196C15.3583 26.6479 15.678 26.6621 16 26.6621ZM16 29.3288C8.63622 29.3288 2.66669 23.3592 2.66669 15.9955C2.66669 8.63164 8.63622 2.66211 16 2.66211C23.3638 2.66211 29.3334 8.63164 29.3334 15.9955C29.3334 23.3592 23.3638 29.3288 16 29.3288Z" fill="#FE5757"/>
</g>
<defs>
<clipPath id="clip0_10_2">
<rect width="32" height="32" fill="white"/>
</clipPath>
</defs>
</svg>
